<svg id="Layer_1" height="512" viewBox="0 0 512 512" width="512" xmlns="http://www.w3.org/2000/svg" data-name="Layer 1"><path d="m274.061 251.207a6 6 0 0 0 -8.486 8.485l9.013 9.013a6 6 0 0 0 8.39.094l16.572-15.846a6 6 0 1 0 -8.293-8.673l-12.332 11.791z"/><path d="m224.586 275h-82.32a6 6 0 1 0 0 12h82.32a6 6 0 0 0 0-12z"/><path d="m142.266 306h55.456a6 6 0 0 0 0-12h-55.456a6 6 0 1 0 0 12z"/><path d="m97.826 266h-3.108a27.236 27.236 0 0 0 17.282-25.776v-10.2a27.757 27.757 0 0 0 -27.772-28.024h-22.144a5.972 5.972 0 0 0 -6.084 5.88v32.344a27.636 27.636 0 0 0 17.738 25.776h-3.108c-12.599 0-22.63 10.583-22.63 23.182v16.018a5.65 5.65 0 0 0 5.781 5.8h60.894c3.314 0 6.325-2.488 6.325-5.8v-16.018a23.441 23.441 0 0 0 -23.174-23.182zm-29.826-52h16.228a16.094 16.094 0 0 1 14.4 8.832l-.1.008a9.355 9.355 0 0 1 -8.3-.927 21.444 21.444 0 0 0 -14.576-3.219l-7.652 1.058zm0 26.224v-8.356l9.314-1.3a9.378 9.378 0 0 1 6.372 1.4 20.8 20.8 0 0 0 11.427 3.409 16.374 16.374 0 0 0 4.887-.625v5.466a16 16 0 1 1 -32 0zm41 58.776h-49v-9.818c0-5.982 4.648-11.182 10.63-11.182h27.2a11.432 11.432 0 0 1 11.17 11.182z"/><path d="m108.765 87h-3.938c-5.032-6-12.239-8.669-20.065-8.669a27.649 27.649 0 0 0 -27.762 27.479v9.371c0 11.344 7.148 20.819 16.948 25.819h-2.328c-12.382 0-22.62 9.612-22.62 21.994v20.667a6.44 6.44 0 0 0 6.164 6.339h59.47a6.62 6.62 0 0 0 6.366-6.339v-20.667c0-12.382-10.44-21.994-22.822-21.994h-2.328c7.174-4 12.775-9.409 15.263-16.888a18.628 18.628 0 0 0 -2.348-37.112zm-23.865 3.185a15.55 15.55 0 0 1 10.038 3.668 5.991 5.991 0 0 0 -5.061 1.708 31.071 31.071 0 0 1 -20.543 9.081 15.634 15.634 0 0 1 15.566-14.457zm13.278 62.815c5.765 0 10.822 4.229 10.822 9.994v15.006h-48v-15.006c0-5.765 4.854-9.994 10.62-9.994zm-13.278-22.193a15.644 15.644 0 0 1 -15.551-14.158 43.192 43.192 0 0 0 22.845-7.483 18.4 18.4 0 0 0 8.28 7.03 15.633 15.633 0 0 1 -15.574 14.611zm28.1-19.928v-5.069a27.71 27.71 0 0 0 -.989-6.377 6.779 6.779 0 0 1 3.779 5.943c0 2.283-1.79 4.301-2.79 5.503z"/><path d="m282.611 172.672a38.75 38.75 0 1 0 -38.75-38.749 38.792 38.792 0 0 0 38.75 38.749zm0-65.5a26.75 26.75 0 1 1 -26.75 26.75 26.78 26.78 0 0 1 26.75-26.749z"/><path d="m224.586 152h-82.32a6 6 0 1 0 0 12h82.32a6 6 0 0 0 0-12z"/><path d="m142.266 183h55.456a6 6 0 0 0 0-12h-55.456a6 6 0 1 0 0 12z"/><path d="m282.611 340.407a38.75 38.75 0 1 0 38.749 38.749 38.793 38.793 0 0 0 -38.749-38.749zm0 65.5a26.75 26.75 0 1 1 26.749-26.75 26.78 26.78 0 0 1 -26.749 26.749z"/><path d="m224.586 398h-82.32a6 6 0 1 0 0 12h82.32a6 6 0 0 0 0-12z"/><path d="m197.722 417h-55.456a6 6 0 1 0 0 12h55.456a6 6 0 0 0 0-12z"/><path d="m97.826 389h-3.108c10.336-4 17.282-14.348 17.282-26.159v-10.2c0-15.519-12.253-28.641-27.772-28.641h-22.144c-3.313 0-6.084 3.184-6.084 6.5v32.344a28.156 28.156 0 0 0 17.738 26.156h-3.108a22.645 22.645 0 0 0 -22.63 22.8v16.016a5.979 5.979 0 0 0 5.781 6.184h60.894a6.446 6.446 0 0 0 6.325-6.185v-16.015c0-12.6-10.575-22.8-23.174-22.8zm-29.826-53h16.228a16.374 16.374 0 0 1 14.4 9.141l-.1.162a9.341 9.341 0 0 1 -8.3-.85 21.4 21.4 0 0 0 -14.576-3.181l-7.65 1.1zm0 26.841v-8.356l9.315-1.3a9.363 9.363 0 0 1 6.372 1.4 20.8 20.8 0 0 0 11.426 3.415 16.407 16.407 0 0 0 4.887-.625v5.466a16 16 0 1 1 -32 0zm41 59.159h-49v-10.2a10.633 10.633 0 0 1 10.63-10.8h27.2a11.1 11.1 0 0 1 11.17 10.8z"/><path d="m224.586 256h-82.32a6 6 0 1 0 0 12h82.32a6 6 0 0 0 0-12z"/><path d="m224.586 133h-82.32a6 6 0 1 0 0 12h82.32a6 6 0 0 0 0-12z"/><path d="m224.586 379h-82.32a6 6 0 1 0 0 12h82.32a6 6 0 0 0 0-12z"/><path d="m33 72.65a6 6 0 0 0 -6 6v5.937a6 6 0 0 0 12 0v-5.937a6 6 0 0 0 -6-6z"/><path d="m33 96.508a6 6 0 0 0 -6 6v120.731a6 6 0 1 0 12 0v-120.731a6 6 0 0 0 -6-6z"/><path d="m473.552 292.877a21.036 21.036 0 0 0 -35.982-6.563 21.089 21.089 0 0 0 -34.695 4.988c-.038.078-.064.16-.1.239-.078-.039-.149-.086-.228-.124a20.936 20.936 0 0 0 -16.109-.873 21.348 21.348 0 0 0 -7.978 4.981l-14.46-40.768v-197.301a34.291 34.291 0 0 0 -34.084-34.456h-290.69a34.411 34.411 0 0 0 -34.226 34.456v397.088a34.411 34.411 0 0 0 34.226 34.456h290.69a34.291 34.291 0 0 0 34.084-34.456v-67.666l1.927 1.049 13.144 37.473a37.6 37.6 0 0 0 35.529 25.331 38.2 38.2 0 0 0 11.411-1.754l54.575-17.072a37.741 37.741 0 0 0 24.414-48.319zm-121.552 161.667a22.279 22.279 0 0 1 -22.084 22.456h-290.69a22.4 22.4 0 0 1 -22.226-22.456v-397.088a22.4 22.4 0 0 1 22.226-22.456h290.69a22.279 22.279 0 0 1 22.084 22.456v174.015a17.424 17.424 0 0 0 -3.379-2.1 20.8 20.8 0 0 0 -16.057-.874 21.029 21.029 0 0 0 -13.464 15.003 38.764 38.764 0 1 0 2.123 16.2l27.6 78.971a29.465 29.465 0 0 0 -29.523 15.729 5.965 5.965 0 0 0 2.234 7.952l30.466 17.613zm-42.64-198a26.75 26.75 0 1 1 -26.749-26.75 26.78 26.78 0 0 1 26.749 26.746zm24.065 98.753a17.457 17.457 0 0 1 20.026-2.874l.219.113 6.307 18.057zm158.871 52.2a25.537 25.537 0 0 1 -15.29 12.96l-54.568 17.072a25.634 25.634 0 0 1 -31.985-16.078l-59.4-170.055a9.079 9.079 0 1 1 17.127-6.03l37.058 105.253a6 6 0 0 0 11.319-3.985l-11.686-33.192a9.079 9.079 0 0 1 17.129-6.03l11.686 33.188a6 6 0 0 0 7.652 3.667 5.919 5.919 0 0 0 3.5-7.653l-11.685-33.188a9.152 9.152 0 0 1 17.281-6.03l11.69 33.188a6 6 0 0 0 11.324-3.985l-8.346-23.706a9.079 9.079 0 1 1 17.128-6.03l31.425 90.637a25.536 25.536 0 0 1 -1.355 19.993z"/></svg>